<svg xmlns="http://www.w3.org/2000/svg" viewBox="0 0 41.1 41.1"><g id="Layer_2" data-name="Layer 2"><path d="M41.1,19.19,40.58,6.93,40.77.69,20.46,0l-.9,2.25L18,.39H6.36L1.51.71l-1,1.54L0,40.76l5.43.34,1.3-1.54.82,1.2,1.56-.08L10.26,40l1.76.92,3.29-.79,25.49.77L40.91,22l-.71-2ZM16.34,28.81,18.27,24l10,5.82L23.9,34.63Zm11.91,8.43-2.15-2,3.43-4.44,3,2.22Zm1.69-8.65L29.58,8.76,11.67,6.89,10.39,19.11l14.24.73.09-6.45L17.4,11.88,17,17l-3.39-.78L16,9.77l10.76,1.46-.09,11.22L7.74,21.4,9.07,3.86,32.51,7.11l.85,23.21Z" transform="translate(0 0)"/></g></svg>