<svg xmlns="http://www.w3.org/2000/svg" viewBox="0 0 41.1 36.85"><g id="Layer_2" data-name="Layer 2"><polygon points="4.68 35.92 4.01 28.57 0 26.9 1.11 1.04 6.7 0.42 6.91 12.3 10.28 12.07 10.11 0.79 16.37 0.21 16.45 12.14 19.57 11.93 20.18 0 26.73 0.13 26.73 4.43 22.97 4.97 22.39 15.62 11.98 15.97 11.77 31.8 14.78 31.59 14.65 18.34 31.16 18.39 31.16 15.42 25.1 15.34 25.06 6.77 41.1 7.19 40.23 31.51 34.08 32.3 33.75 36.85 4.68 35.92"/><path d="M30.28,2.23c0,.13-.25,4.3-.25,4.3l7.64.54V2.72Z" transform="translate(0 -2.23)"/></g></svg>