<svg xmlns="http://www.w3.org/2000/svg" viewBox="0 0 41.1 41.1"><g id="Layer_2" data-name="Layer 2"><path d="M41.1,3.14,40.24.81,34.05,0,32.42,1.61,31.23.16,5.16.34,3.1,1.61,1,.85,0,4.42,1.13,36.06l1,2.32L2.06,41.1l29.84-.76,8.6.68.21-1.7L39.77,37l1-.26ZM27.62,7.27,33,7.63v3.16l-5.54-.39S27.62,7.36,27.62,7.27Zm7.22,22.89-4.46.57L30.14,34,9,33.36,8.54,28,5.62,26.81,6.43,8l4.06-.45.15,8.63L13.09,16,13,7.85l4.54-.42.06,8.66,2.27-.15.44-8.67L25,7.36v3.13l-2.73.4-.42,7.73-7.57.26-.15,11.49,2.19-.15-.09-9.62,12,0V18.47l-4.4-.06,0-6.22,11.66.3Z" transform="translate(0 0)"/></g></svg>