<svg xmlns="http://www.w3.org/2000/svg" viewBox="0 0 41.1 41.1"><g id="Layer_3" data-name="Layer 3"><line x1="39.46" y1="41.1" x2="1.22" y2="40.76"/></g><g id="Layer_2" data-name="Layer 2"><path d="M40,19.4l.64-12.34L40,1,25.75,0,.47,1l.94,3.89L0,5.52.47,39.08l1.76,1.64,31.4.16.8-1.23,3.34-.77L36.57,40,36,41.1l4.34-.34.79-4.62Zm-16.5,4.43L33,30.55,17.87,26.64l6.64,8.17L10.89,28.93l1.28,5.37L4.08,28.42l-.51-2.81,5.87-.34L5.1,22.72l6.22-.34L5.19,19.74,10,17.44l-5.71-.76.51-3.41,8.6-7-2.13,7,14.3-7-5.87,7,11.66-2.12-7.83,5.27,14,3.49Z" transform="translate(0 0)"/></g></svg>